<?xml version="1.0" encoding="utf-8"?>
<!-- Generator: Adobe Illustrator 23.0.1, SVG Export Plug-In . SVG Version: 6.00 Build 0)  -->
<svg version="1.1" id="Camada_1" xmlns="http://www.w3.org/2000/svg" xmlns:xlink="http://www.w3.org/1999/xlink" x="0px" y="0px"
	 viewBox="0 0 140.47 134.64" style="enable-background:new 0 0 140.47 134.64;" xml:space="preserve">
<style type="text/css">
	.st0{fill-rule:evenodd;clip-rule:evenodd;fill:#FF2F4B;}
	.st1{fill:#FF2F4B;}
	.st2{fill:#F09C1A;}
	.st3{fill:#FECD13;}
	.st4{fill:#FFFFFF;}
</style>
<g>
	<path class="st1" d="M104.43,26.25c-4.22,0-7.64,3.42-7.64,7.64c0,4.22,3.42,7.64,7.64,7.64c4.22,0,7.64-3.42,7.64-7.64
		C112.08,29.68,108.65,26.25,104.43,26.25z M70.46,36.06c-17.7,0-32.1,14.4-32.1,32.1s14.4,32.1,32.1,32.1s32.1-14.4,32.1-32.1
		S88.16,36.06,70.46,36.06z M70.46,88.72c-11.34,0-20.57-9.23-20.57-20.57c0-11.34,9.23-20.56,20.57-20.56
		c11.34,0,20.56,9.22,20.56,20.56C91.02,79.5,81.8,88.72,70.46,88.72z M135.24,41.48c0-21.63-17.53-39.16-39.16-39.16H44.39
		c-21.63,0-39.16,17.53-39.16,39.16v51.69c0,21.63,17.53,39.16,39.16,39.16h51.68c21.63,0,39.16-17.53,39.16-39.16V41.48z
		 M122.97,93.16c0,14.85-12.04,26.89-26.89,26.89H44.39c-14.85,0-26.89-12.04-26.89-26.89V41.48c0-14.85,12.04-26.89,26.89-26.89
		h51.68c14.85,0,26.89,12.04,26.89,26.89V93.16z"/>
</g>
</svg>
