<?xml version="1.0" encoding="utf-8"?>
<!-- Generator: Adobe Illustrator 23.0.1, SVG Export Plug-In . SVG Version: 6.00 Build 0)  -->
<svg version="1.1" id="Camada_1" xmlns="http://www.w3.org/2000/svg" xmlns:xlink="http://www.w3.org/1999/xlink" x="0px" y="0px"
	 viewBox="0 0 71.18 141.53" style="enable-background:new 0 0 71.18 141.53;" xml:space="preserve">
<style type="text/css">
	.st0{fill-rule:evenodd;clip-rule:evenodd;fill:#FF2F4B;}
	.st1{fill:#FF2F4B;}
	.st2{fill:#F09C1A;}
	.st3{fill:#FECD13;}
	.st4{fill:#FFFFFF;}
</style>
<g>
	<g>
		<path class="st0" d="M18.18,71.29v64.79c0,0.93,0.76,1.69,1.69,1.69h24.06c0.93,0,1.69-0.76,1.69-1.69V70.24h17.44
			c0.88,0,1.61-0.67,1.68-1.55l1.68-19.84c0.08-0.98-0.69-1.83-1.68-1.83H45.61V32.95c0-3.3,2.67-5.97,5.97-5.97h13.44
			c0.93,0,1.69-0.76,1.69-1.69V5.45c0-0.93-0.76-1.69-1.69-1.69H42.31c-13.33,0-24.13,10.81-24.13,24.13v19.13H6.15
			c-0.93,0-1.69,0.76-1.69,1.69v19.84c0,0.93,0.76,1.69,1.69,1.69h12.03V71.29z"/>
	</g>
</g>
</svg>
