<?xml version="1.0" encoding="utf-8"?>
<!-- Generator: Adobe Illustrator 23.0.1, SVG Export Plug-In . SVG Version: 6.00 Build 0)  -->
<svg version="1.1" id="Camada_1" xmlns="http://www.w3.org/2000/svg" xmlns:xlink="http://www.w3.org/1999/xlink" x="0px" y="0px"
	 viewBox="0 0 228.12 141.53" style="enable-background:new 0 0 228.12 141.53;" xml:space="preserve">
<style type="text/css">
	.st0{fill-rule:evenodd;clip-rule:evenodd;fill:#FF2F4B;}
	.st1{fill:#FF2F4B;}
	.st2{fill:#F09C1A;}
	.st3{fill:#FECD13;}
	.st4{fill:#FFFFFF;}
</style>
<g>
	<g>
		<g>
			<path class="st1" d="M177.82,37c-50.55,0-50.62,50.36-50.62,50.62c0,0-3.46,50.43,50.62,50.43c0,0,40.71,2.31,44.78-29.75
				c0.36-2.83-1.84-5.35-4.69-5.35h-14.15c-2.05,0-3.9,1.31-4.48,3.27c-1.24,4.19-5.58,10.9-20.69,10.9c0,0-19.6,1.3-22.74-17.52
				c-0.47-2.83,1.8-5.39,4.67-5.39h58.77c2.53,0,4.63-1.99,4.71-4.52C224.48,76.19,222,37,177.82,37z M158.69,76.58
				c-1.87,0-3.2-1.81-2.63-3.59c1.88-5.82,7.39-16.68,22.27-16.68c15.34,0,18.97,11.46,19.82,17.15c0.25,1.65-1.06,3.12-2.73,3.12
				H158.69z M97.97,64.84c-1.66-0.55-1.9-2.81-0.34-3.6c5.65-2.87,12.29-9.12,12.29-22.7c0-23.54-16.42-35.09-37.28-35.09H7.52
				c-1.91,0-3.46,1.55-3.46,3.46v124.92c0,1.91,1.55,3.46,3.46,3.46h65.12c0,0,41.9,1.29,41.9-38.94
				C114.54,96.34,115.95,70.78,97.97,64.84z M34.28,29.36c0-1.38,1.12-2.5,2.5-2.5h35.86c0,0,9.3,0,9.3,13.73
				c0,13.73-5.45,15.72-11.68,15.72H36.78c-1.38,0-2.5-1.12-2.5-2.5V29.36z M70.72,111.87H36.78c-1.38,0-2.5-1.12-2.5-2.5V79.08
				c0-1.38,1.12-2.5,2.5-2.5h35.86c0,0,13.93-0.13,13.86,18.16C86.5,110.14,76.18,111.74,70.72,111.87z M149.46,8.71v11.28
				c0,1.37,1.11,2.48,2.48,2.48h49.45c1.37,0,2.48-1.11,2.48-2.48V8.71c0-1.37-1.11-2.48-2.48-2.48h-49.45
				C150.57,6.23,149.46,7.34,149.46,8.71z"/>
		</g>
	</g>
</g>
</svg>
