<?xml version="1.0" encoding="utf-8"?>
<!-- Generator: Adobe Illustrator 23.0.1, SVG Export Plug-In . SVG Version: 6.00 Build 0)  -->
<svg version="1.1" id="Camada_1" xmlns="http://www.w3.org/2000/svg" xmlns:xlink="http://www.w3.org/1999/xlink" x="0px" y="0px"
	 viewBox="0 0 318.18 324.34" style="enable-background:new 0 0 318.18 324.34;" xml:space="preserve">
<style type="text/css">
	.st0{fill-rule:evenodd;clip-rule:evenodd;fill:#FF2F4B;}
	.st1{fill:#FF2F4B;}
	.st2{fill:#F09C1A;}
	.st3{fill:#FECD13;}
	.st4{fill:#FFFFFF;}
</style>
<g>
	<path class="st1" d="M78.75,92.61c12.95,0,23.48-10.54,23.48-23.48S91.7,45.64,78.75,45.64S55.27,56.18,55.27,69.13
		S65.8,92.61,78.75,92.61z M78.75,63.33c3.2,0,5.79,2.6,5.79,5.79s-2.6,5.79-5.79,5.79s-5.79-2.6-5.79-5.79S75.55,63.33,78.75,63.33
		z"/>
	<path class="st1" d="M315.17,112.18c0-25.58-8.77-49.14-23.46-67.85l0.04-0.03c-0.28-0.34-0.57-0.67-0.86-1
		c-20.19-25.09-51.13-41.17-85.76-41.17h-90.47C71.8,2.12,32.97,27.4,15.6,66.54l-0.01,0c-0.03,0.07-0.06,0.15-0.09,0.22
		c-0.02,0.05-0.05,0.1-0.07,0.15c-1.53,3.47-2.86,7-4,10.58c-5.59,16.48-8.42,33.7-8.42,51.35c0,38.17,13.66,75.13,38.46,104.08
		c22.65,26.43,53.28,44.76,86.98,52.21l-0.07,37.08h43.41c28.67,0,55.81-10.96,76.43-30.87l0.17-0.17
		c13.51-13.67,20.95-31.75,20.95-50.9c0-26.88-11.29-51.23-29.48-63.6l-75.11-54.43h150.42V112.18z M265.32,51.89
		c3.91,0,7.6,1.62,10.24,4.47c8.83,11.13,15.09,24.38,17.86,38.86l-33.88-16.64l-0.16-0.08c-4.88-2.3-8.04-7.26-8.04-12.65
		C251.35,58.16,257.62,51.89,265.32,51.89z M251.04,34.9c-11.69,5.41-19.82,17.25-19.82,30.96c0,13.13,7.66,25.22,19.52,30.84
		l11.02,5.41h-129.9V22.26h73.25C221.88,22.26,237.59,26.88,251.04,34.9z M111.73,22.31v79.79H26.84c0.6-6.45,1.92-12.75,3.91-18.88
		c0.98-2.85,2.06-5.68,3.23-8.47C47.72,43.75,78,23.43,111.73,22.31z M228.44,193.26c12.61,8.52,20.76,26.98,20.76,47.02
		c0,13.78-5.35,26.79-15.06,36.66c-16.83,16.21-38.98,25.14-62.36,25.14h-23.24l0.07-33.8l-8.45-1.39
		c-49.23-8.1-88.65-40.92-106.56-84.63c19.86,22.39,48.83,36.53,81.04,36.53c13.13,0,25.97-2.33,38.16-6.92l0,0.01l0.43-0.18l0,0
		c18.96-8.21,31.19-26.8,31.19-47.49c0-0.96-0.03-1.93-0.07-2.88l43.81,31.75L228.44,193.26z M154.16,139.44
		c6.35,5.59,10.14,14.82,10.14,24.77c0,12.55-7.37,23.84-18.81,28.9c-9.85,3.68-20.22,5.54-30.84,5.54
		c-44.63,0-81.63-33.33-87.41-76.4h103.2L154.16,139.44z"/>
</g>
</svg>
