<?xml version="1.0" encoding="utf-8"?>
<!-- Generator: Adobe Illustrator 23.0.1, SVG Export Plug-In . SVG Version: 6.00 Build 0)  -->
<svg version="1.1" id="Camada_1" xmlns="http://www.w3.org/2000/svg" xmlns:xlink="http://www.w3.org/1999/xlink" x="0px" y="0px"
	 viewBox="0 0 143.88 134.64" style="enable-background:new 0 0 143.88 134.64;" xml:space="preserve">
<style type="text/css">
	.st0{fill-rule:evenodd;clip-rule:evenodd;fill:#FF2F4B;}
	.st1{fill:#FF2F4B;}
	.st2{fill:#F09C1A;}
	.st3{fill:#FECD13;}
	.st4{fill:#FFFFFF;}
</style>
<g>
	<g>
		<g>
			<g>
				<path class="st1" d="M140.94,82.26v48.78c0,1.21-0.98,2.18-2.18,2.18h-25.18c-1.21,0-2.18-0.98-2.18-2.18V85.67
					c0-11.94-4.27-20.09-14.96-20.09c-8.16,0-13.01,5.49-15.16,10.8c-0.78,1.9-0.98,4.54-0.98,7.2v47.45c0,1.21-0.98,2.18-2.18,2.18
					H52.94c-1.21,0-2.19-0.97-2.18-2.18c0.06-12.08,0.31-70.7,0.05-84.47c-0.02-1.22,0.96-2.21,2.18-2.21h25.13
					c1.21,0,2.18,0.98,2.18,2.18v10.41c-0.06,0.1-0.14,0.2-0.2,0.29h0.2v-0.29c3.93-6.04,10.93-14.68,26.63-14.68
					C126.37,42.27,140.94,54.97,140.94,82.26L140.94,82.26z M7.05,133.22h25.17c1.21,0,2.18-0.98,2.18-2.18v-84.5
					c0-1.21-0.98-2.18-2.18-2.18H7.05c-1.21,0-2.18,0.98-2.18,2.18v84.5C4.87,132.24,5.85,133.22,7.05,133.22z"/>
			</g>
		</g>
	</g>
	<g>
		<path class="st1" d="M34.57,17.23c0,8.73-7.08,15.82-15.82,15.82S2.94,25.97,2.94,17.23S10.02,1.42,18.76,1.42
			S34.57,8.5,34.57,17.23z"/>
	</g>
</g>
</svg>
