<?xml version="1.0" encoding="utf-8"?>
<!-- Generator: Adobe Illustrator 23.0.1, SVG Export Plug-In . SVG Version: 6.00 Build 0)  -->
<svg version="1.1" id="Camada_1" xmlns="http://www.w3.org/2000/svg" xmlns:xlink="http://www.w3.org/1999/xlink" x="0px" y="0px"
	 viewBox="0 0 331 336" style="enable-background:new 0 0 331 336;" xml:space="preserve">
<style type="text/css">
	.st0{fill-rule:evenodd;clip-rule:evenodd;fill:#FF2F4B;}
	.st1{fill:#FF2F4B;}
	.st2{fill:#F09C1A;}
	.st3{fill:#FECD13;}
	.st4{fill:#FFFFFF;}
</style>
<path d="M254.97,179.49l55.13-55.13l-11-11l-55.13,55.13l-2.66-2.66L331,76.13L256.99,2.12l-89.7,89.69l-61.98-61.98
	c-18.2-18.2-47.82-18.2-66.03,0L20.3,48.82c-18.2,18.2-18.2,47.82,0,66.03l61.98,61.98l-68.72,68.72l-6.38,47.78l6.21,6.19L0,312.91
	l20.21,20.21l13.38-13.38l7.63,7.63l46.46-7.92l68.61-68.61l78.05,78.05l4.98,4.98l7.03-0.45l59.18-3.83l13.64-0.88l0.88-13.64
	l3.83-59.18l0.45-7.03l-4.98-4.98L254.97,179.49z M256.99,24.14l52,52l-22.95,22.95l-52-52L256.99,24.14z M223.03,58.08l52.01,52.01
	l-23.1,23.08l-52-52L223.03,58.08z M31.3,103.84c-12.16-12.16-12.16-31.86,0-44.02l18.99-18.99c12.16-12.16,31.86-12.16,44.02,0
	l6.44,6.44l-63.01,63.01L31.3,103.84z M48.74,121.28l63.01-63.01l6.04,6.04l-63.01,63.01L48.74,121.28z M65.79,138.33l63.01-63.01
	l6.04,6.04l-63.01,63.01L65.79,138.33z M82.84,155.38l63.01-63.01l10.45,10.45l-63.01,63L82.84,155.38z M46.55,310.66l-22.93-22.91
	l2.94-21.93l41.22,41.22L46.55,310.66z M83.93,301.19l-52-52l61.35-61.35l11-11l63.01-63.01l11-11l10.64-10.64l52,52l-84.65,84.65
	l0,0l-11,11l0,0L83.93,301.19z M239.85,312.39l-72.55-72.55l63.01-63.01l72.55,72.55L239.85,312.39z M305.88,293.23l-22.18,22.18
	l-26.58,1.72l50.48-50.48L305.88,293.23z"/>
</svg>
